<?xml version="1.0" standalone="no"?><!DOCTYPE svg PUBLIC "-//W3C//DTD SVG 1.1//EN" "http://www.w3.org/Graphics/SVG/1.1/DTD/svg11.dtd"><svg t="1592280214035" class="icon" viewBox="0 0 1024 1024" version="1.1" xmlns="http://www.w3.org/2000/svg" p-id="2654" width="300" height="300" xmlns:xlink="http://www.w3.org/1999/xlink"><defs><style type="text/css"></style></defs><path d="M410.865867 406.088612m22.627417 22.627417l0 0q22.627417 22.627417 0 45.254834l-183.282077 183.282078q-22.627417 22.627417-45.254834 0l0 0q-22.627417-22.627417 0-45.254834l183.282077-183.282078q22.627417-22.627417 45.254834 0Z" fill="#ffffff" p-id="2655"></path><path d="M631.685292 342.029288m22.627417 22.627417l0 0q22.627417 22.627417 0 45.254834l-139.745513 139.745513q-22.627417 22.627417-45.254834 0l0 0q-22.627417-22.627417 0-45.254834l139.745513-139.745513q22.627417-22.627417 45.254834 0Z" fill="#ffffff" p-id="2656"></path><path d="M536.842123 527.506804m-22.627417 22.627417l0 0q-22.627417 22.627417-45.254834 0l-78.255507-78.255507q-22.627417-22.627417 0-45.254834l0 0q22.627417-22.627417 45.254834 0l78.255507 78.255507q22.627417 22.627417 0 45.254834Z" fill="#ffffff" p-id="2657"></path><path d="M767.07 864.46m0 32l0 0q0 32-32 32l-446.76 0q-32 0-32-32l0 0q0-32 32-32l446.76 0q32 0 32 32Z" fill="#ffffff" p-id="2658"></path><path d="M543.13 902.17h-64V644.38h64z" fill="#ffffff" p-id="2659"></path><path d="M801.15 149.51H224.66A127.42 127.42 0 0 0 97.25 276.92v263.25a127.41 127.41 0 0 0 127.41 127.41 31.41 31.41 0 0 0 31.41-31.41V635a31.41 31.41 0 0 0-31.41-31.41 63.41 63.41 0 0 1-63.41-63.41V276.92a63.41 63.41 0 0 1 63.41-63.41h576.49a63.41 63.41 0 0 1 63.41 63.41v263.25a63.41 63.41 0 0 1-63.41 63.41H455.22A31.41 31.41 0 0 0 423.81 635v1.18a31.41 31.41 0 0 0 31.41 31.41h345.93a127.41 127.41 0 0 0 127.41-127.42V276.92a127.42 127.42 0 0 0-127.41-127.41z" fill="#ffffff" p-id="2660"></path><path d="M706.82 432.05A106.19 106.19 0 1 1 813 325.87a106.31 106.31 0 0 1-106.18 106.18z m0-148.37A42.19 42.19 0 1 0 749 325.87a42.24 42.24 0 0 0-42.18-42.19z" fill="#ffffff" p-id="2661"></path></svg>